<svg version="1.1" baseProfile="basic" id="Shape_1_1_"
	 xmlns="http://www.w3.org/2000/svg" xmlns:xlink="http://www.w3.org/1999/xlink" x="0px" y="0px" width="240.25px"
	 height="76.137px" viewBox="0 0 240.25 76.137" xml:space="preserve">
<g id="Shape_1">
	<path fill="#FFFFFF" d="M44.275,22.894H51.4v-7.015h-7.125V8.887h8.002V1.508H32.736v36.873h11.539V22.894z M29.295,60.441
		c-1.236-0.944-3.715-1.91-7.579-2.955c-2.799-0.763-4.671-1.349-5.562-1.744c-1.12-0.494-1.385-0.818-1.45-0.936
		c-0.101-0.19-0.225-0.588-0.225-1.402c0-0.407,0.122-0.687,0.383-0.877c0.292-0.213,0.764-0.322,1.401-0.322
		c1.069,0,1.318,0.215,1.369,0.28c0.061,0.077,0.253,0.436,0.253,1.829v1.687h12.341v-1.778c0-1.25-0.12-2.157-0.367-2.771
		c-0.261-0.646-0.948-1.304-2.096-2.009c-1.098-0.674-2.682-1.223-4.707-1.628c-2.001-0.401-4.46-0.605-7.308-0.605
		c-2.872,0-5.432,0.249-7.609,0.741c-2.222,0.5-3.834,1.236-4.786,2.184c-0.976,0.97-1.472,2.473-1.472,4.464
		c0,1.424,0.456,2.674,1.355,3.713c0.895,1.037,3.241,2.133,7.176,3.355c5.604,1.727,7.164,2.31,7.476,2.489
		c0.332,0.199,0.514,0.831,0.514,1.774c0,0.667-0.129,1.108-0.376,1.28c-0.201,0.142-0.66,0.31-1.697,0.31
		c-0.711,0-1.195-0.142-1.4-0.409c-0.131-0.174-0.352-0.692-0.352-2.231v-1.902H2.236v1.546c0,2.065,0.478,3.644,1.424,4.69
		c0.946,1.043,2.599,1.842,5.053,2.438c2.37,0.573,5.258,0.865,8.58,0.865c3.006,0,5.61-0.271,7.75-0.804
		c2.181-0.545,3.771-1.348,4.723-2.382c0.968-1.052,1.46-2.611,1.46-4.631C31.226,62.854,30.575,61.419,29.295,60.441z
		 M29.167,68.782c-0.844,0.918-2.299,1.639-4.324,2.144c-2.074,0.519-4.614,0.781-7.551,0.781c-3.257,0-6.08-0.283-8.389-0.842
		c-2.258-0.55-3.82-1.286-4.64-2.196c-0.806-0.891-1.215-2.286-1.215-4.146v-0.735h10.716v1.092c0,1.394,0.164,2.258,0.519,2.722
		c0.373,0.49,1.043,0.729,2.046,0.729c1.017,0,1.726-0.15,2.165-0.458c0.484-0.338,0.719-0.974,0.719-1.942
		c0-1.294-0.296-2.1-0.912-2.471c-0.334-0.194-1.493-0.671-7.648-2.566c-3.731-1.158-6.02-2.206-6.801-3.113
		c-0.78-0.899-1.159-1.94-1.159-3.182c0-1.766,0.415-3.077,1.233-3.891c0.843-0.839,2.319-1.499,4.394-1.967
		c2.118-0.478,4.618-0.721,7.429-0.721c2.795,0,5.199,0.199,7.15,0.589c1.928,0.387,3.423,0.899,4.44,1.525
		c1.223,0.75,1.636,1.296,1.766,1.622c0.207,0.509,0.31,1.339,0.31,2.467v0.968H18.698v-0.877c0-1.594-0.241-2.09-0.421-2.325
		c-0.316-0.405-0.956-0.594-2.013-0.594c-0.826,0-1.442,0.158-1.884,0.478c-0.474,0.348-0.713,0.863-0.713,1.531
		c0,0.8,0.105,1.385,0.322,1.787c0.233,0.429,0.816,0.84,1.837,1.292c0.94,0.415,2.795,0.999,5.675,1.782
		c3.71,1.005,6.167,1.953,7.299,2.817c1.086,0.831,1.612,2.014,1.612,3.617C30.413,66.512,29.994,67.885,29.167,68.782z
		 M49.473,51.396c-1.065,0-1.706,0.199-2.005,0.626c-0.187,0.261-0.397,0.8-0.397,2.684v2.133h4.612v-2.133
		c0-1.337-0.134-2.159-0.423-2.595C50.945,51.637,50.343,51.396,49.473,51.396z M50.87,56.028h-2.99v-1.323
		c0-1.731,0.19-2.135,0.249-2.216c0.035-0.046,0.255-0.284,1.343-0.284c0.401,0,0.915,0.061,1.11,0.353
		c0.107,0.162,0.288,0.656,0.288,2.147V56.028z M4.124,35.282c1.15,1.292,2.671,2.259,4.563,2.904
		c1.89,0.645,4.024,0.968,6.398,0.968c2.503,0,4.695-0.342,6.579-1.025c1.881-0.684,3.375-1.663,4.48-2.938
		c1.106-1.275,1.764-2.683,1.973-4.224c0.211-1.541,0.316-4.164,0.316-7.869V16.79c0-3.795-0.109-6.453-0.328-7.971
		s-0.903-2.923-2.056-4.213c-1.15-1.291-2.671-2.258-4.563-2.904c-1.892-0.646-4.024-0.967-6.4-0.967
		c-2.503,0-4.695,0.341-6.579,1.025c-1.879,0.683-3.375,1.663-4.48,2.937C2.92,5.972,2.264,7.381,2.053,8.921
		c-0.21,1.542-0.316,4.165-0.316,7.869v6.309c0,3.796,0.109,6.453,0.328,7.971C2.286,32.588,2.971,33.993,4.124,35.282z
		 M13.276,10.982c0-1.897,0.16-3.039,0.48-3.427c0.32-0.388,0.782-0.582,1.385-0.582c0.711,0,1.183,0.24,1.41,0.718
		c0.229,0.478,0.344,1.576,0.344,3.29v16.945c0,2.171-0.109,3.544-0.33,4.122c-0.219,0.577-0.723,0.866-1.507,0.866
		c-0.768,0-1.258-0.251-1.466-0.751c-0.21-0.501-0.316-1.823-0.316-3.964V10.982z M171.69,1.508h-11.537v36.873h11.537V1.508z
		 M197.887,38.381l5.87-36.873h-12.169l-0.802,6.857c-0.669,5.51-1.301,11.818-1.896,18.923c-0.604-7.03-1.616-15.624-3.03-25.78
		h-12.168l6.667,36.873H197.887z M97.418,31.001h-8.47v-8.107h7.208v-7.015h-7.208V8.887h7.7V1.508H77.411v36.873h20.007V31.001z
		 M235.243,5.936V5.882c0.479-0.095,0.831-0.499,0.851-0.977c0.021-0.339-0.138-0.668-0.425-0.871
		c-0.417-0.265-0.916-0.383-1.405-0.329c-0.531,0-1.065,0.042-1.589,0.127v4.101h0.961V6.307h0.449c0.53,0,0.786,0.202,0.851,0.627
		c0.061,0.351,0.17,0.691,0.328,0.999h1.013c-0.149-0.318-0.255-0.648-0.312-0.999C235.852,6.382,235.648,6.052,235.243,5.936z
		 M234.113,5.627h-0.458V4.459c0.183-0.042,0.353-0.065,0.535-0.053c0.607,0,0.883,0.243,0.883,0.626
		C235.073,5.457,234.648,5.627,234.113,5.627z M159.833,47.064h11.922V42.5h-11.922V47.064z M160.644,43.311h10.301v2.943h-10.301
		V43.311z M234.315,1.696h-0.032c-2.329,0.011-4.2,1.902-4.2,4.228c0.008,2.316,1.903,4.197,4.232,4.186
		c2.321,0,4.205-1.891,4.197-4.217C238.513,3.577,236.625,1.708,234.315,1.696z M234.413,9.08h-0.098
		c-1.818-0.032-3.269-1.519-3.236-3.336c0.032-1.742,1.426-3.166,3.185-3.219h0.02c1.771,0.011,3.196,1.466,3.172,3.23v0.073
		C237.521,7.571,236.146,9.027,234.413,9.08z M151.136,37.891c2.119-0.843,3.549-1.887,4.29-3.131
		c0.737-1.246,1.11-3.182,1.11-5.808c0-3.614-0.669-6.232-2.001-7.858c-1.333-1.625-4.569-3.704-9.706-6.236
		c-1.791-0.88-2.88-1.631-3.261-2.254c-0.401-0.623-0.6-1.549-0.6-2.78c0-0.957,0.178-1.672,0.534-2.143
		c0.356-0.471,0.879-0.707,1.576-0.707c0.64,0,1.094,0.175,1.369,0.524c0.275,0.349,0.409,1.162,0.409,2.437v2.733h10.719V11.21
		c0-2.93-0.345-5.007-1.029-6.229c-0.685-1.222-2.082-2.236-4.192-3.041c-2.11-0.804-4.663-1.206-7.66-1.206
		c-2.742,0-5.08,0.368-7.017,1.104c-1.936,0.737-3.338,1.758-4.208,3.063c-0.867,1.305-1.301,3.37-1.301,6.194
		c0,1.959,0.308,3.568,0.92,4.829c0.611,1.26,1.381,2.248,2.313,2.96c0.932,0.714,2.832,1.86,5.704,3.438
		c2.868,1.564,4.666,2.681,5.399,3.348c0.709,0.668,1.065,2.088,1.065,4.259c0,0.987-0.187,1.731-0.56,2.232
		c-0.376,0.5-0.947,0.751-1.713,0.751c-0.77,0-1.305-0.197-1.604-0.592s-0.453-1.282-0.453-2.665v-4.486h-10.715v2.414
		c0,2.765,0.336,4.896,1.013,6.4c0.677,1.503,2.106,2.741,4.29,3.712c2.184,0.972,4.82,1.458,7.907,1.458
		C146.551,39.154,149.018,38.733,151.136,37.891z M210.574,61.922l-3.824-14.286h-12.703l7.319,20.321
		c0.705,1.906,0.778,2.279,0.782,2.338c0,0.068,0,0.253-0.543,0.358c-0.551,0.107-1.835,0.164-3.824,0.164h-0.405v4.585h8.292
		c3.613,0,6.287-0.153,7.948-0.461c1.693-0.311,3.038-0.811,4.006-1.48c0.984-0.686,1.701-1.568,2.127-2.623
		c0.405-1.011,0.896-2.846,1.495-5.606l3.828-17.595h-12.631L210.574,61.922z M224.063,48.447l-3.609,16.612
		c-0.584,2.68-1.073,4.521-1.458,5.478c-0.369,0.905-0.984,1.667-1.84,2.26c-0.871,0.604-2.11,1.06-3.686,1.349
		c-1.612,0.298-4.237,0.448-7.803,0.448h-7.481v-2.968c1.835-0.006,3.006-0.064,3.577-0.176c1.041-0.205,1.199-0.811,1.199-1.154
		c0-0.126,0-0.36-0.831-2.613l-6.931-19.235h10.925l4.724,17.643l2.305-17.643H224.063z M149.981,49.942l0.385-2.305h-13.898v24.453
		h13.826v-9.74c0-2.774,0.19-3.838,0.356-4.241c0.206-0.515,0.813-0.938,1.807-1.252c1.073-0.344,2.799-0.516,5.124-0.516h0.409
		v-9.145l-0.421,0.014C154.421,47.325,151.878,48.243,149.981,49.942z M157.176,55.532c-2.212,0.021-3.881,0.205-4.966,0.551
		c-1.231,0.393-2.01,0.972-2.313,1.721c-0.283,0.693-0.417,2.18-0.417,4.545v8.931h-12.197V48.447h12.124l-0.677,4.085l0.952-1.12
		c1.729-2.038,4.249-3.171,7.494-3.372V55.532z M190.146,67.273c-0.024-0.028-0.259-0.338-0.259-2.271V52.759h3.512v-4.551h-3.512
		v-3.725h-13.854v3.725h-2.803v4.551h2.803v11.604c0,2.425,0.122,3.936,0.381,4.622c0.271,0.729,0.944,1.373,1.997,1.912
		c1.009,0.512,2.18,0.845,3.492,0.986c1.271,0.138,3.423,0.206,6.388,0.206h5.655v-4.622h-0.405
		C190.737,67.467,190.219,67.308,190.146,67.273z M193.131,71.28h-4.841c-2.937,0-5.055-0.069-6.303-0.203
		c-1.207-0.129-2.289-0.434-3.204-0.901c-0.871-0.443-1.41-0.939-1.608-1.472c-0.149-0.403-0.328-1.485-0.328-4.341V51.949h-2.803
		v-2.931h2.803v-3.725h12.229v3.725h3.508v2.931h-3.508v13.054c0,2.251,0.3,2.747,0.628,2.947c0.251,0.154,0.863,0.312,3.427,0.326
		V71.28z M159.833,71.901h11.922V47.694h-11.922V71.901z M160.644,48.504h10.301v22.587h-10.301V48.504z M118.309,63.952
		c0,2.534-0.158,3.121-0.228,3.255c-0.028,0.053-0.219,0.313-1.36,0.313c-1.042,0-1.265-0.242-1.309-0.317
		c-0.062-0.1-0.251-0.612-0.251-3.07V47.637h-13.822v16.351c0,2.082,0.077,3.441,0.235,4.158c0.166,0.754,0.585,1.482,1.248,2.163
		c0.66,0.679,1.677,1.224,3.025,1.623c1.32,0.389,2.994,0.585,4.979,0.585c1.75,0,3.322-0.207,4.675-0.616
		c1.013-0.306,1.92-0.729,2.702-1.268l-0.166,1.456h14.097V47.637h-13.825V63.952z M118.807,67.575
		c0.146-0.289,0.315-0.962,0.315-3.623V48.447h12.197V71.28h-12.371l0.292-2.564l-0.794,0.703c-0.852,0.753-1.925,1.328-3.181,1.709
		c-1.275,0.385-2.771,0.579-4.439,0.579c-1.903,0-3.502-0.186-4.747-0.553c-1.214-0.358-2.115-0.832-2.674-1.409
		c-0.555-0.569-0.903-1.167-1.037-1.772c-0.142-0.648-0.215-1.989-0.215-3.984V48.447h12.197v15.685c0,2.546,0.192,3.197,0.36,3.481
		c0.284,0.481,0.944,0.717,2.01,0.717C117.879,68.331,118.539,68.089,118.807,67.575z M58.02,48.378
		c-2.402-0.776-5.485-1.169-9.159-1.169c-3.006,0-5.708,0.326-8.031,0.968c-2.368,0.654-4.105,1.623-5.161,2.872
		c-1.068,1.262-1.61,2.996-1.61,5.153v6.895c0,1.839,0.235,3.21,0.717,4.196c0.482,0.982,1.349,1.888,2.575,2.689
		c1.209,0.79,2.906,1.42,5.049,1.866c2.125,0.443,4.602,0.668,7.363,0.668c2.854,0,5.264-0.229,7.164-0.679
		c1.922-0.455,3.537-1.152,4.799-2.072c1.294-0.943,2.104-1.82,2.469-2.682c0.356-0.842,0.53-1.994,0.53-3.523V61.41H51.579v3.522
		c0,1.339-0.223,1.894-0.409,2.122c-0.247,0.304-0.822,0.466-1.665,0.466c-0.836,0-1.173-0.178-1.309-0.33
		c-0.095-0.103-0.316-0.488-0.316-1.794v-4.71h16.843v-3.54c0-2.372-0.51-4.247-1.515-5.58C62.208,50.24,60.46,49.166,58.02,48.378z
		 M63.911,59.876H47.07v5.52c0,1.199,0.166,1.942,0.522,2.337c0.363,0.401,0.988,0.598,1.912,0.598c1.126,0,1.877-0.251,2.297-0.766
		c0.397-0.488,0.589-1.349,0.589-2.633V62.22h11.52v1.341c0,1.399-0.155,2.479-0.468,3.208c-0.302,0.713-1.041,1.501-2.199,2.344
		c-1.175,0.854-2.69,1.507-4.509,1.938c-1.837,0.436-4.184,0.656-6.973,0.656c-2.706,0-5.126-0.219-7.194-0.649
		c-2.043-0.428-3.648-1.015-4.772-1.75c-1.102-0.724-1.872-1.52-2.289-2.37c-0.421-0.858-0.634-2.151-0.634-3.84v-6.895
		c0-1.959,0.476-3.517,1.418-4.63c0.948-1.122,2.548-2.003,4.756-2.615c2.252-0.622,4.881-0.938,7.814-0.938
		c3.589,0,6.586,0.381,8.908,1.13c2.281,0.735,3.893,1.713,4.792,2.904c0.896,1.187,1.351,2.902,1.351,5.092V59.876z M85.634,64.772
		c0,1.409-0.212,2.007-0.393,2.261c-0.227,0.323-0.717,0.487-1.454,0.487c-0.638,0-1.098-0.164-1.408-0.502
		c-0.313-0.34-0.472-0.887-0.472-1.622V54.244c0-1.264,0.201-1.632,0.288-1.731c0.17-0.197,0.6-0.306,1.205-0.306
		c0.611,0,1.039,0.125,1.233,0.361c0.121,0.147,0.324,0.561,0.324,1.677v3.129h13.084v-0.405c0-2.291-0.426-4.097-1.26-5.371
		c-0.841-1.282-2.528-2.352-5.011-3.174c-2.435-0.804-5.402-1.213-8.823-1.213c-3.443,0-6.412,0.411-8.822,1.226
		c-2.491,0.836-4.083,1.778-4.871,2.882c-0.776,1.088-1.171,2.694-1.171,4.778v6.718c0,2.38,0.476,4.252,1.412,5.57
		c0.939,1.318,2.539,2.354,4.764,3.072c2.175,0.705,5.154,1.062,8.851,1.062c2.896,0,5.371-0.259,7.349-0.77
		c2.001-0.517,3.649-1.299,4.905-2.325c1.278-1.045,2.05-2.095,2.295-3.123c0.232-0.971,0.36-2.431,0.383-4.339l0.004-0.409H85.634
		V64.772z M86.448,64.772v-2.41h10.773c-0.034,1.646-0.152,2.906-0.353,3.751c-0.204,0.851-0.883,1.754-2.02,2.684
		c-1.162,0.95-2.71,1.679-4.594,2.165c-1.912,0.494-4.317,0.745-7.146,0.745c-3.611,0-6.506-0.344-8.602-1.022
		c-2.052-0.664-3.515-1.596-4.351-2.769c-0.837-1.179-1.262-2.895-1.262-5.103v-6.718c0-1.912,0.344-3.362,1.021-4.308
		c0.675-0.946,2.18-1.815,4.468-2.586c2.329-0.784,5.21-1.181,8.563-1.181c3.334,0,6.216,0.395,8.567,1.173
		c2.306,0.764,3.849,1.722,4.586,2.848c0.701,1.065,1.077,2.586,1.122,4.523H85.771v-2.319c0-1.057-0.166-1.774-0.51-2.193
		c-0.36-0.434-0.986-0.654-1.861-0.654c-0.884,0-1.479,0.192-1.821,0.585c-0.33,0.383-0.486,1.1-0.486,2.262v11.152
		c0,0.943,0.231,1.675,0.688,2.169c0.463,0.509,1.14,0.766,2.007,0.766c1.015,0,1.729-0.279,2.118-0.83
		C86.271,66.986,86.448,66.092,86.448,64.772z M73.737,15.878h-7.126V8.887h8.005V1.508H55.075v36.873h11.537V22.894h7.126V15.878z
		 M110.381,21.617l6.003,16.764h10.111V1.508h-9.646v16.603l-6.469-16.603h-9.647v36.873h9.647V21.617z M217.241,22.894h7.211
		v-7.015h-7.211V8.887h7.701V1.508h-19.237v36.873h20.007v-7.38h-8.471V22.894z"/>
</g>
</svg>
